<svg id="Layer_1" data-name="Layer 1" xmlns="http://www.w3.org/2000/svg" viewBox="0 0 2563.67 5800"><polygon points="1098.71 514.93 1098.71 442.05 1281.83 0 1464.95 442.05 1464.95 514.93 1464.95 1540.76 1098.71 1540.76 1098.71 514.93"/><path d="M1316.88,2773.79v518.12c0,101.12,82,183.12,183.12,183.12,162.68,0,308.85,70.72,409.42,183.12a547.13,547.13,0,0,1,139.94,366.24v549.35l-351.15,847.73L1500,5900l-198.21-478.49L950.64,4573.74V4024.46a911.13,911.13,0,0,0,366.24,164.73v311.68L1500,4943l183.12-442.12V4024.39c0-101.12-82-183.12-183.12-183.12-162.68,0-308.85-70.72-409.42-183.12a547.13,547.13,0,0,1-139.94-366.24V2739.48h366.24Z" transform="translate(-218.17 -100)"/><path d="M2781.83,2373.24H2397.28A911.13,911.13,0,0,0,2232.55,2007h549.28Z" transform="translate(-218.17 -100)"/><path d="M981.92,2007H1500c162.68,0,308.89,70.72,409.45,183.12a547.18,547.18,0,0,1,139.91,366.24v735.48a911.28,911.28,0,0,0-366.24-164.74V2556.36c0-101.12-82-183.12-183.12-183.12H218.17V2007Z" transform="translate(-218.17 -100)"/></svg>